<?xml version="1.0" encoding="UTF-8" standalone="no"?>
<svg
   xmlns:dc="http://purl.org/dc/elements/1.1/"
   xmlns:cc="http://creativecommons.org/ns#"
   xmlns:rdf="http://www.w3.org/1999/02/22-rdf-syntax-ns#"
   xmlns:svg="http://www.w3.org/2000/svg"
   xmlns="http://www.w3.org/2000/svg"
   xmlns:sodipodi="http://sodipodi.sourceforge.net/DTD/sodipodi-0.dtd"
   xmlns:inkscape="http://www.inkscape.org/namespaces/inkscape"
   height="32px"
   id="Layer_1"
   style="enable-background:new 0 0 32 32;"
   version="1.1"
   viewBox="0 0 32 32"
   width="32px"
   xml:space="preserve"
   sodipodi:docname="whiteburger.svg"
   inkscape:version="0.92.4 5da689c313, 2019-01-14"><metadata
     id="metadata3767"><rdf:RDF><cc:Work
         rdf:about=""><dc:format>image/svg+xml</dc:format><dc:type
           rdf:resource="http://purl.org/dc/dcmitype/StillImage" /><dc:title></dc:title></cc:Work></rdf:RDF></metadata><defs
     id="defs3765" /><sodipodi:namedview
     pagecolor="#ffffff"
     bordercolor="#666666"
     borderopacity="1"
     objecttolerance="10"
     gridtolerance="10"
     guidetolerance="10"
     inkscape:pageopacity="0"
     inkscape:pageshadow="2"
     inkscape:window-width="1366"
     inkscape:window-height="712"
     id="namedview3763"
     showgrid="false"
     inkscape:zoom="16.21875"
     inkscape:cx="16"
     inkscape:cy="16"
     inkscape:window-x="0"
     inkscape:window-y="28"
     inkscape:window-maximized="1"
     inkscape:current-layer="Layer_1" /><path
     d="M4,10h24c1.104,0,2-0.896,2-2s-0.896-2-2-2H4C2.896,6,2,6.896,2,8S2.896,10,4,10z M28,14H4c-1.104,0-2,0.896-2,2  s0.896,2,2,2h24c1.104,0,2-0.896,2-2S29.104,14,28,14z M28,22H4c-1.104,0-2,0.896-2,2s0.896,2,2,2h24c1.104,0,2-0.896,2-2  S29.104,22,28,22z"
     id="path3760" /><path
     style="fill:#ffffff;stroke-width:0.06165703"
     d="M 3.407458,9.8781314 C 3.301136,9.8473168 3.0800935,9.7319001 2.9162524,9.6216498 1.6247228,8.7525663 1.7901119,6.8663205 3.2155699,6.2079649 L 3.6007707,6.0300578 H 15.963006 c 11.796914,0 12.376954,0.00513 12.684099,0.1122455 0.40639,0.1417226 0.897666,0.5785332 1.114505,0.9909469 0.144074,0.2740197 0.165578,0.3869879 0.165578,0.8698327 0,0.4819823 -0.02151,0.5954304 -0.163662,0.8631984 -0.21423,0.4035384 -0.556147,0.7261035 -0.975857,0.9206255 L 28.448555,9.9440747 16.024663,9.9391163 C 8.77385,9.9362225 3.5202789,9.9108295 3.407458,9.8781314 Z"
     id="path3769"
     inkscape:connector-curvature="0" /><path
     style="fill:#ffffff;stroke-width:0.06165703"
     d="M 3.3481964,17.848047 C 2.5163943,17.560515 1.9570999,16.697443 2.0457786,15.838229 2.1204815,15.114428 2.641039,14.415582 3.2926652,14.16429 3.5932213,14.048383 3.9051885,14.045472 16.024663,14.045472 h 12.423892 l 0.348694,0.163475 c 0.951333,0.446005 1.399144,1.521363 1.035188,2.485867 -0.186014,0.492946 -0.642312,0.952089 -1.126063,1.133083 l -0.354931,0.132797 -12.344507,-0.002 C 4.3820828,17.956785 3.6441088,17.950336 3.3481964,17.848047 Z"
     id="path3771"
     inkscape:connector-curvature="0" /><path
     style="fill:#ffffff;stroke-width:0.06165703"
     d="M 3.4774566,25.890244 C 2.8994352,25.706541 2.5058504,25.374947 2.2254729,24.835453 2.0907886,24.576297 2.0647849,24.443648 2.0623004,24.003083 2.0595478,23.514984 2.0744962,23.451479 2.2800025,23.078227 2.4244223,22.815924 2.6033081,22.599501 2.7977572,22.451826 3.4013055,21.99346 2.3122821,22.026744 16.117148,22.044735 l 12.393064,0.01615 0.308285,0.151506 c 1.478317,0.726514 1.530818,2.720308 0.09249,3.51223 l -0.400771,0.220657 -12.393064,0.01167 c -9.8803278,0.0093 -12.4430679,-0.0042 -12.6396914,-0.06671 z"
     id="path3773"
     inkscape:connector-curvature="0" /></svg>